<svg width="157" height="157" viewBox="0 0 157 157" fill="none" xmlns="http://www.w3.org/2000/svg">
<circle cx="78.5" cy="78.5" r="77" fill="#42FF00" stroke="black" stroke-width="3"/>
<path d="M112 97.7774C96.5 115 61.5 115 45 97.7774" stroke="black" stroke-width="10" stroke-linecap="round"/>
<path fill-rule="evenodd" clip-rule="evenodd" d="M120.67 71.7006C121.687 70.9176 122.569 69.9478 123.262 68.8014C126.563 63.3384 124.318 55.9353 118.246 52.266C112.175 48.5967 104.576 50.0509 101.275 55.5138C99.1181 59.0827 99.3287 63.4796 101.427 67.1225C104.167 67.0584 107.533 67.4207 111.094 68.2459C114.854 69.1169 118.191 70.3556 120.67 71.7006Z" fill="black"/>
<path fill-rule="evenodd" clip-rule="evenodd" d="M37.1526 72.7413C36.0594 72.0682 35.0814 71.1952 34.2733 70.127C30.4221 65.0366 31.8865 57.4402 37.544 53.1601C43.2015 48.8799 50.9098 49.5368 54.7609 54.6273C57.2768 57.9527 57.5242 62.3476 55.816 66.1888C53.0839 66.4097 49.7737 67.1197 46.3175 68.3104C42.6689 69.5673 39.4784 71.146 37.1526 72.7413Z" fill="black"/>
</svg>
