<svg width="157" height="157" viewBox="0 0 157 157" fill="none" xmlns="http://www.w3.org/2000/svg">
<circle cx="78.5" cy="78.5" r="77" fill="#DC0000" stroke="black" stroke-width="3"/>
<path d="M45 117C72.3642 100.804 87.0438 100.603 112 117" stroke="black" stroke-width="10" stroke-linecap="round"/>
<path fill-rule="evenodd" clip-rule="evenodd" d="M43.682 50.9453C42.3987 50.9816 41.1153 51.2486 39.8813 51.7696C34.0009 54.2525 31.4709 61.5634 34.2304 68.0988C36.9898 74.6343 43.9939 77.9196 49.8743 75.4367C53.7158 73.8147 56.1275 70.1323 56.5687 65.9516C54.3132 64.3943 51.8015 62.1243 49.4037 59.3651C46.8723 56.4522 44.8986 53.4897 43.682 50.9453Z" fill="black"/>
<path fill-rule="evenodd" clip-rule="evenodd" d="M114.255 50.9453C115.539 50.9816 116.822 51.2486 118.056 51.7696C123.937 54.2525 126.467 61.5634 123.707 68.0988C120.948 74.6343 113.944 77.9196 108.063 75.4367C104.222 73.8147 101.81 70.1323 101.369 65.9516C103.624 64.3943 106.136 62.1243 108.534 59.3651C111.065 56.4522 113.039 53.4897 114.255 50.9453Z" fill="black"/>
</svg>
